<?xml version="1.0" encoding="UTF-8" standalone="no"?>
<svg
   xmlns:dc="http://purl.org/dc/elements/1.1/"
   xmlns:cc="http://creativecommons.org/ns#"
   xmlns:rdf="http://www.w3.org/1999/02/22-rdf-syntax-ns#"
   xmlns:svg="http://www.w3.org/2000/svg"
   xmlns="http://www.w3.org/2000/svg"
   xmlns:sodipodi="http://sodipodi.sourceforge.net/DTD/sodipodi-0.dtd"
   xmlns:inkscape="http://www.inkscape.org/namespaces/inkscape"
   version="1.1"
   id="Ebene_2"
   x="0px"
   y="0px"
   width="880"
   height="880"
   viewBox="0 0 880 880"
   enable-background="new 0 0 700 400"
   xml:space="preserve"
   sodipodi:docname="OSR_logo_avatar.svg"
   inkscape:version="1.0.1 (3bc2e813f5, 2020-09-07)"
   inkscape:export-filename="C:\Users\49152\Documents\UniMainz\Conferences\OHBM2021\OSR\web_imgs\OSR_logo.png"
   inkscape:export-xdpi="300"
   inkscape:export-ydpi="300"><metadata
   id="metadata53"><rdf:RDF><cc:Work
       rdf:about=""><dc:format>image/svg+xml</dc:format><dc:type
         rdf:resource="http://purl.org/dc/dcmitype/StillImage" /><dc:title /></cc:Work></rdf:RDF></metadata><defs
   id="defs51" /><sodipodi:namedview
   pagecolor="#ffffff"
   bordercolor="#666666"
   borderopacity="1"
   objecttolerance="10"
   gridtolerance="10"
   guidetolerance="10"
   inkscape:pageopacity="1"
   inkscape:pageshadow="2"
   inkscape:window-width="1920"
   inkscape:window-height="1001"
   id="namedview49"
   showgrid="false"
   inkscape:zoom="0.74428572"
   inkscape:cx="386.14355"
   inkscape:cy="453.37068"
   inkscape:window-x="-9"
   inkscape:window-y="-9"
   inkscape:window-maximized="1"
   inkscape:current-layer="Ebene_2"
   inkscape:document-rotation="0" />



<rect
   style="opacity:1;fill:#ffffff;stroke:none;stroke-width:6.08;stroke-miterlimit:10"
   id="rect842"
   width="874.66412"
   height="874.66412"
   x="2.68714"
   y="2.68714" /><g
   id="g2416"
   transform="matrix(0.44810521,0,0,0.44810521,54.540916,326.76805)"
   style="fill:#d1534a;fill-opacity:1">
	<path
   id="path2424"
   fill="#EE4615"
   d="m 53.8,125 v 12.3 H 89.9 V 125 c 0,-29.8 24.3,-54.1 54.1,-54.1 29.8,0 54.1,24.3 54.1,54.1 v 89.1 h 36.1 V 125 C 234.2,75.3 193.7,34.8 144,34.8 94.3,34.8 53.8,75.2 53.8,125"
   style="fill:#d1534a;fill-opacity:1" />
	<path
   id="path2426"
   fill="#EE4615"
   d="m 174,266.1 c 0,16.5 -13.3,29.8 -29.8,29.8 -16.5,0 -29.8,-13.3 -29.8,-29.8 0,-16.5 13.3,-29.8 29.8,-29.8 16.5,0 29.8,13.4 29.8,29.8"
   style="fill:#d1534a;fill-opacity:1" />
	<path
   id="path2428"
   fill="#EE4615"
   d="m 73.5,265.8 c 0,-38.7 31.5,-70.3 70.3,-70.3 38.7,0 70.3,31.5 70.3,70.3 0,38.7 -31.5,70.3 -70.3,70.3 -38.7,0 -70.3,-31.6 -70.3,-70.3 m -36.1,0 c 0,58.7 47.7,106.4 106.4,106.4 58.7,0 106.4,-47.7 106.4,-106.4 0,-58.7 -47.7,-106.4 -106.4,-106.4 -58.7,0 -106.4,47.7 -106.4,106.4"
   style="fill:#d1534a;fill-opacity:1" />
</g><text
   xml:space="preserve"
   style="font-style:normal;font-variant:normal;font-weight:bold;font-stretch:normal;font-size:106.667px;line-height:1.25;font-family:'Nirmala UI';-inkscape-font-specification:'Nirmala UI Bold';fill:#d1534a;fill-opacity:1;stroke:none"
   x="173.64435"
   y="481.52945"
   id="text850"><tspan
     sodipodi:role="line"
     id="tspan848"
     x="173.64435"
     y="481.52945"
     style="font-style:normal;font-variant:normal;font-weight:bold;font-stretch:normal;font-size:106.667px;font-family:'Nirmala UI';-inkscape-font-specification:'Nirmala UI Bold'">S</tspan></text><text
   xml:space="preserve"
   style="font-style:normal;font-variant:normal;font-weight:bold;font-stretch:normal;font-size:106.667px;line-height:1.25;font-family:'Stencil Std';-inkscape-font-specification:'Stencil Std Bold';fill:#559aaa;fill-opacity:1;stroke:none"
   x="237.89969"
   y="481.25677"
   id="text850-9"><tspan
     sodipodi:role="line"
     id="tspan848-5"
     x="237.89969"
     y="481.25677"
     style="font-style:normal;font-variant:normal;font-weight:bold;font-stretch:normal;font-size:106.667px;font-family:'Nirmala UI';-inkscape-font-specification:'Nirmala UI Bold';fill:#559aaa;fill-opacity:1"
     dx="0.18000001">SIG</tspan></text><text
   xml:space="preserve"
   style="font-style:normal;font-weight:normal;font-size:93.3333px;line-height:1.25;font-family:sans-serif;fill:#054e61;fill-opacity:1;stroke:none"
   x="496.75848"
   y="366.5737"
   id="text896"><tspan
     sodipodi:role="line"
     id="tspan894"
     x="496.75848"
     y="366.5737"
     style="font-style:normal;font-variant:normal;font-weight:bold;font-stretch:condensed;font-size:93.3333px;font-family:'Agency FB';-inkscape-font-specification:'Agency FB Bold Condensed';fill:#054e61;fill-opacity:1">Open</tspan><tspan
     sodipodi:role="line"
     x="496.75848"
     y="485.28183"
     id="tspan898"
     style="font-style:normal;font-variant:normal;font-weight:bold;font-stretch:condensed;font-size:93.3333px;font-family:'Agency FB';-inkscape-font-specification:'Agency FB Bold Condensed';fill:#054e61;fill-opacity:1">Science</tspan><tspan
     sodipodi:role="line"
     x="496.75848"
     y="603.98999"
     id="tspan900"
     style="font-style:normal;font-variant:normal;font-weight:bold;font-stretch:condensed;font-size:93.3333px;font-family:'Agency FB';-inkscape-font-specification:'Agency FB Bold Condensed';fill:#054e61;fill-opacity:1">Room</tspan></text><path
   style="fill:none;stroke:#712426;stroke-width:5.00597;stroke-linecap:butt;stroke-linejoin:miter;stroke-miterlimit:4;stroke-dasharray:none;stroke-opacity:1"
   d="M 454.22151,216.85046 V 639.67923"
   id="path902" /></svg>
